<svg xmlns="http://www.w3.org/2000/svg" viewBox="-20 -100 450 450">
<g stroke-miterlimit="10" fill="none">
    <path d="M340-2h-72c-7 0-11 8-6 13l23 23-132 131-46-46-12-12c-4-4-11-4-15 0L1 186c-4 4-4 11 0 15l13 12c4 4 10 4 15 0l58-59 59 59c4 4 11 4 15 0l6-7h1L312 61l23 23c5 5 13 1 13-6V6c0-4-3-8-8-8z" fill="#afb9d2"/>
    <path d="M253 145v192c0 6 5 11 11 11h34c6 0 11-5 11-11V90l-56 55z" fill="#78d2be"/>
    <path d="M181 217v120c0 6 5 11 11 11h34c6 0 11-5 11-11V162l-56 55z" fill="#a5d76e"/>
    <path d="M153 233c-7 0-14-3-20-8l-24-24v136c0 6 5 11 11 11h34c6 0 11-5 11-11V231c-4 2-8 2-12 2z" fill="#ffc36e"/>
    <path d="M87 179l-46 46-4 4v108c0 6 5 11 11 11h34c6 0 11-5 11-11V185l-6-6z" fill="#d2555a"/>
</g>
</svg>