<svg xmlns="http://www.w3.org/2000/svg" width="40" height="40" viewBox="0 0 375 375" version="1.2">
<path d="M289 220.4a101.5 101.5 0 11-203 .2 101.5 101.5 0 01203-.2" fill="#8b8e8b"/>
<path d="M289 220.4c0 20.5-6 39.5-16.5 55.5a101.6 101.6 0 01-138.2-142A101.6 101.6 0 01289 220.4" fill="#e2e2e2"/>
<path d="M222.2 185a12.9 12.9 0 11-25.8 0 12.9 12.9 0 0125.8 0M202.2 130a4.8 4.8 0 11-9.6 0 4.8 4.8 0 019.6 0M272.2 241a20.6 20.6 0 11-41.3 0 20.6 20.6 0 0141.3 0M152.3 238a16 16 0 11-32 0 16 16 0 0132 0M145 160.4a4.4 4.4 0 11-8.7 0 4.4 4.4 0 018.7 0M210 245.8a9.8 9.8 0 11-19.7 0 9.8 9.8 0 0119.7 0M263.8 174a9.2 9.2 0 11-18.4 0 9.2 9.2 0 0118.4 0M156.8 193.3a10.2 10.2 0 11-20.5 0 10.2 10.2 0 0120.5 0" fill="#8b8e8b"/>
<path d="M84.8 170l140.4-56.3 5.6 14-140.4 56.2zm0 0" fill="#ffc107"/>
<path d="M159.4 60.6a41.2 41.2 0 00-25 29.8 41.2 41.2 0 00-61.8 49.3c3.8 9.3 11.7 17 21.7 23.2l119.2-47.8a52 52 0 00-.5-31.7 41.2 41.2 0 00-53.6-22.8" fill="#c62828"/>
<path d="M217.6 58.3a73 73 0 004.2 47l2.2 5.6-59 23.6c-7.7-19.3-21-32.1-25.2-30.4-4.2 1.7-5 20.1 2.8 39.4l-59 23.7-2.2-5.6A73 73 0 0052 124.7s26.4-7.3 53 6.3c0 0 2.9-41.7 17-71.6 30.8 12 61.6 40.1 61.6 40.1a79.9 79.9 0 0134-41.2zm0 0" fill="#ffc107"/>
<path d="M125 54.9a4.6 4.6 0 010 3.5 4.6 4.6 0 01-8 .7 4.4 4.4 0 01-.6-3.4 4.6 4.6 0 012.7-3.3 4.7 4.7 0 012.6-.2 4.3 4.3 0 011.7.7 4.3 4.3 0 011.2 1.2l.4.8zm0 0" fill="#ffc107"/>
<path d="M224 54.1a4.7 4.7 0 01.3 2.6 4 4 0 01-.7 1.6 4.5 4.5 0 01-7.5-5 5 5 0 011.3-1.3 5 5 0 011.7-.6 4.5 4.5 0 015 2.7zm0 0" fill="#ffc107"/>
<path d="M52.8 122.8a4.3 4.3 0 01.2 2.6 4.6 4.6 0 01-2 2.8 4.3 4.3 0 01-1.6.7 4.5 4.5 0 11-.7-9 4.8 4.8 0 011.7.4 4.6 4.6 0 012.4 2.5zm0 0" fill="#ffc107"/>
<path d="M224.2 109.2L82.4 166c-2 .8-3 3-2.1 5 .7 1.9 3 2.8 4.9 2L227 116.2c2-.8 2.9-3 2-4.9-.7-2-2.9-2.9-4.8-2zm0 0" fill="#ffcd50"/>
<path d="M230.9 126L89 182.8a3.8 3.8 0 102.8 7L233.7 133a3.8 3.8 0 10-2.8-7zm0 0" fill="#ffcd50"/>
</svg>