<?xml version="1.0" encoding="utf-8"?>
<!-- Generator: Adobe Illustrator 24.1.3, SVG Export Plug-In . SVG Version: 6.00 Build 0)  -->
<svg version="1.1" id="Layer_1" xmlns="http://www.w3.org/2000/svg" xmlns:xlink="http://www.w3.org/1999/xlink" x="0px" y="0px"
	 viewBox="0 0 595.3 841.9" style="enable-background:new 0 0 595.3 841.9;" xml:space="preserve">
<style type="text/css">
	.st0{fill:#FFFFFF;}
	.st1{fill:#CCCCCC;}
	.st2{fill:#F5EB21;}
	.st3{fill:#47B15A;}
	.st4{fill:#A4A027;}
	.st5{fill:#9D0D10;}
	.st6{fill:#F10D0B;}
	.st7{fill:#707070;}
	.st8{fill:#444444;}
	.st9{fill:#23772D;}
	.st10{fill:none;stroke:#000000;stroke-width:5;stroke-linecap:round;stroke-linejoin:round;stroke-miterlimit:10;}
	.st11{fill:none;stroke:#000000;stroke-width:6;stroke-linecap:round;stroke-linejoin:round;stroke-miterlimit:10;}
	.st12{fill:none;stroke:#000000;stroke-width:4;stroke-linecap:round;stroke-linejoin:round;stroke-miterlimit:10;}
	.st13{fill:none;stroke:#000000;stroke-width:10;stroke-linecap:round;stroke-linejoin:round;stroke-miterlimit:10;}
</style>
<g>
	<path class="st0" d="M415.9,498.9l8.1,16.9l-11.8,9.1c-3.1,1.1-5.7,2.8-7.7,4.7l-14.4-13.5c6.4-4.2,13.8-9.2,19.6-13.4L415.9,498.9
		z"/>
	<polygon class="st1" points="421.6,510.6 399.5,524.9 403.1,529.6 424,515.8 	"/>
	<path class="st0" d="M249.2,378.9l-0.3,0.6l-29-40.2l5.8-13l8.4-19.1l6.1,4.1C240.2,311.3,252.4,366.3,249.2,378.9L249.2,378.9z"/>
	<path class="st0" d="M450.1,567.2c0.4,6.1-1.8,11.8-2.7,13.9l-6.1,3.7c0.1-0.3,1.7-7.4-4.4-18.1c2.9-2.6,5.6-5.5,7.6-8.4
		C444.5,558.3,449.6,559.6,450.1,567.2z"/>
	<path class="st0" d="M447,581.9c0,0,5.6,10.7,0.3,15.5c-5,4.5-10.5,3.2-11.1,3c0.1-0.7,0.1-1.4,0.1-2.1c0.1-3.6-0.3-6.8-1-9.8
		l6.1-3.7c0,0,0,0,0,0l6.1-3.7C447.2,581.6,447,581.9,447,581.9z"/>
	<path class="st0" d="M446.4,453.2l-13.5,4.7l-29.8-11.2l-29.5-12.3l-3-19l1.5-4.6l5.4-16.8l5.7-14.2l6.5-16l1.7-0.3l0.5-0.1
		l5.9-0.9l22.8,14.9l4.2,6.9l8.1,13.1l10.3,17.5C443.3,415,444.3,442.4,446.4,453.2z"/>
	<path class="st0" d="M444.5,558.3c-2,2.9-4.7,5.8-7.6,8.4c-2-3.5-4.8-7.3-8.8-11.4c0.7-0.5,1.3-1,1.6-1.4
		c3.4-3.5,6.1-12.6,6.1-12.6s6.8-0.3,7.9,5.3C444.7,552.3,444.5,558.3,444.5,558.3z"/>
	<path class="st1" d="M436.9,566.8c6.2,10.7,4.5,17.8,4.4,18.1c0,0,0,0,0,0l-6.1,3.7c-2.2-8.9-6.9-14.5-7.2-14.8c0,0,0,0,0,0
		C431,571.7,434.1,569.3,436.9,566.8z"/>
	<path class="st1" d="M422.3,598.1l14,0.3c0,0.7-0.1,1.4-0.1,2.1c0,0-0.1,0-0.1,0s0,0.3,0,0.9c0,0,0,0.1,0,0.1
		c-0.3,3.7-2.3,16.7-18,11.7C421.7,608.2,422.6,602.9,422.3,598.1z"/>
	<path d="M424.9,384.4l-4.2-6.9l-22.8-14.9l-5.9,0.9l-0.4-2.7c5.4-0.8,14.7-3.5,24.2-8c11.7-5.6,16.4-9.3,16.1-1.5
		C431.5,359.1,430.8,377.5,424.9,384.4z M420.9,369.3v-12.6l-11.4,4.3L420.9,369.3z"/>
	<path class="st0" d="M428.1,555.4c-3-3.1-6.6-6.4-11.1-9.7l2.4-14.7h8.9l7.6,10.4c0,0-2.7,9-6.1,12.6
		C429.4,554.4,428.8,554.9,428.1,555.4z"/>
	<path class="st0" d="M435.3,588.6c0.7,2.9,1.2,6.2,1,9.8l-14-0.3c-0.7-9.1-5.7-16.6-6-17c2.6-1.5,7-4,11.7-7.4
		C428.3,574.1,433.1,579.7,435.3,588.6z"/>
	<polygon class="st2" points="428,199.4 386.7,260 375.5,253 420.2,205.3 420.2,205.3 	"/>
	<path class="st1" d="M422.3,598.1c0.4,4.9-0.6,10.2-4.2,15.1c0,0-6,2.2-9.8-0.4c-0.6-1.6-0.6-8.7-0.4-15L422.3,598.1z"/>
	<polygon class="st3" points="420.9,356.8 420.9,369.3 409.5,361 	"/>
	<polygon class="st4" points="420.2,205.3 375.5,253 365.6,246.8 	"/>
	<path class="st0" d="M417,545.7c-4.8-3.6-10.4-7.3-17.1-11.1c1-1.4,2.5-3.2,4.6-5c2.1-1.8,4.7-3.6,7.7-4.7l7.2,6.1L417,545.7z"/>
	<path class="st1" d="M399.9,534.6c6.7,3.8,12.4,7.5,17.1,11.1l-0.4,2.8l-9.4,7.5c-0.3-1.3-0.5-2.4-0.5-3.2c0,0-8.1-12.9-8.1-16.2
		C398.6,536.5,399,535.8,399.9,534.6z"/>
	<path class="st0" d="M422.3,598.1l-14.4-0.3c0.1-5.3,0.4-10,0.4-10s4.9-4.5,5.4-5.3l0,0c0.1,0,1.1-0.5,2.6-1.4
		C416.6,581.5,421.6,589,422.3,598.1z"/>
	<path class="st1" d="M428.1,555.4c3.9,4.1,6.8,7.9,8.8,11.4c-2.8,2.6-5.9,4.9-8.8,7c0,0,0,0,0,0c-4.7,3.3-9.1,5.9-11.7,7.4
		c-1.5,0.8-2.5,1.3-2.6,1.4c0.4-0.8-2.2-12.5-3-16.2C410.8,566.3,423,559.4,428.1,555.4z"/>
	<path class="st1" d="M428.1,555.4c-5.2,4-17.4,10.9-17.4,10.9c-0.1-0.7-0.2-1.1-0.2-1.1s-2.3-5.2-3.3-9.2l9.4-7.5l0.4-2.8
		C421.5,549,425.1,552.3,428.1,555.4z"/>
	<path class="st1" d="M392.1,597.4l15.8,0.3c-0.2,6.3-0.2,13.4,0.4,15c-1-0.7-1.8-1.7-2.4-3.2c0,0-5.9,0.2-12.2,0.1v0
		C393.8,609.6,392.8,603.5,392.1,597.4z"/>
	<path class="st0" d="M390.1,516.1l14.4,13.5c-2,1.8-3.6,3.7-4.6,5c-0.9,1.2-1.3,1.9-1.3,1.9l-26.4,1.5l4.6-13.4
		c0,0,5.1-3.2,11.7-7.5C389.1,516.8,389.6,516.4,390.1,516.1z"/>
	<path class="st0" d="M355.6,466.5h32.3l1.4-5.7l-32.6-0.5l-12.5-12.3l-0.5,5.5L355.6,466.5z M386,469l-32.6,2.1l-12.5-12.3
		l-0.6,5.5l12,13.1l32.3-2.7L386,469z M403.1,446.8l-9.1,26.7l-7.3,16.1l-40.3,1.8l-26.5-22.2l-11.5-54.3l32.7,17.5l29.6-17l3,19
		L403.1,446.8z"/>
	<path class="st0" d="M407.2,556c1,4,3.3,9.2,3.3,9.2s0.1,0.4,0.2,1.1c0.8,3.7,3.4,15.4,3,16.2l0,0c-0.5,0.8-5.4,5.3-5.4,5.3
		s-6.3-4.7-9.3-5.2c-3-0.5-6.4,5.9-6.4,5.9s-0.4-0.3-1-1.4v0c-0.3-0.4-0.5-1-0.9-1.7c-1.2-2.5-10.1-1.4-11.7,0.8
		c-0.3,0.4-0.5,1.2-0.7,2.4h-14.6v-7.3l-10.1-20.5c0.8-0.7,1.7-1.6,2.6-2.5c4.2-4.3,8.9-10.5,12-14.9v0c2.3-3.2,3.8-5.4,3.8-5.4
		l26.4-1.5c0,3.3,8.1,16.2,8.1,16.2C406.7,553.6,406.9,554.7,407.2,556z"/>
	<path class="st0" d="M399,582.5c3,0.5,9.3,5.2,9.3,5.2s-0.3,4.7-0.4,10l-15.8-0.3c-0.4-4.1-0.7-8.2-0.5-10.3c0.6,1.1,1,1.4,1,1.4
		S396,582,399,582.5z"/>
	<path class="st1" d="M393.8,609.6c-6.9-0.1-14.3-0.5-15-1.9c-0.7-1.4-0.9-2.7-1-3.5c0,0,0-0.4,0-1c0,0,0,0,0,0c0-1.3,0-3.6,0-6.1
		l14.2,0.3C392.8,603.5,393.8,609.6,393.8,609.6L393.8,609.6z"/>
	<polygon points="389.3,460.7 387.9,466.5 355.6,466.5 343.6,453.4 344.1,447.9 356.6,460.2 	"/>
	<path d="M336.6,344.2c18.2,6.6,48.9,16.9,52,16.9c0.6,0,1.5-0.1,2.5-0.2c0.2,0,0.3-0.1,0.5-0.1l0.4,2.7l-0.5,0.1l-1.7,0.3l-6.5,16
		l-56.1-7.4c0,0-3,0.2-4.7-6.8c-1.7-6.9-6.1-20.6-6.9-24c-0.9-3.4,1-5.9,8.5-2.4C325.8,340.2,330.5,342,336.6,344.2z M366.4,369.3
		l7.2-8.3l-26.3-8.1l-9-2.8l5.2,17.2l8.6,0.7L366.4,369.3z"/>
	<path class="st0" d="M387,267.8l0.2,3.6l-0.3-0.1C387,270.1,387,268.9,387,267.8z"/>
	<path class="st0" d="M392.1,597.4l-14.2-0.3c0.1-3,0.2-6.3,0.6-8.5c0.2-1.1,0.4-2,0.7-2.4c1.5-2.2,10.5-3.4,11.7-0.8
		c0.3,0.7,0.6,1.3,0.9,1.7v0C391.4,589.2,391.6,593.3,392.1,597.4z"/>
	<polygon points="386,469 384.6,474.7 352.4,477.4 340.3,464.3 340.9,458.8 353.4,471.1 	"/>
	<path class="st5" d="M385.3,278.8c-0.8,1.3-1.9,1.8-3.4,1.2c-1.7-0.7-3.7-1.6-5.9-2.6c-0.4-0.2-0.9-0.4-1.3-0.6
		c-0.9-0.4-1.9-0.8-2.8-1.2c-0.4-0.2-0.7-0.3-1.1-0.5c-1.6-0.6-3.2-1.2-4.7-1.8c-0.4-0.1-0.8-0.3-1.1-0.4c-1.3-0.4-2.6-0.8-3.8-1
		l-21.6-11.8v-10.9l47.4,21.9c0,0,0,0.1,0,0.1c0,0.4-0.1,0.8-0.1,1.1c-0.1,1-0.2,1.9-0.4,2.8c0,0.3-0.1,0.5-0.2,0.8
		c-0.2,0.8-0.4,1.5-0.7,2.1C385.5,278.4,385.4,278.6,385.3,278.8z"/>
	<path class="st1" d="M363.9,588.6h14.6c-0.3,2.2-0.5,5.5-0.6,8.5c-0.1,2.5-0.1,4.8,0,6.1l-13.9,4.2V588.6z"/>
	<polygon class="st0" points="377.6,394.1 372.1,410.8 370.6,415.4 341.1,432.4 308.3,414.9 291.9,406.1 291.9,406.1 312.5,369.3 
		314.2,375.3 	"/>
	<polygon class="st3" points="373.6,361 366.4,369.3 352.2,368.1 347.3,352.9 	"/>
	<path class="st5" d="M372.2,538.1c0,0-1.5,2.3-3.8,5.4v-44.3l20.1-1.4v19.3c-6.7,4.3-11.7,7.5-11.7,7.5L372.2,538.1z"/>
	<path class="st6" d="M386.9,271.2l-47.4-21.9l15.5-9.1l8.9,5.6v0l0.5,2l1.3-1l9.9,6.2l11.1,7l0.4,7.8c0,0,0,0,0,0
		C387,268.9,387,270.1,386.9,271.2z"/>
	<path class="st0" d="M353.5,199.9l10.4,45.9l-8.9-5.6l-15.5,9.1l-21.7-8c0,0,3.7-19.3,5.1-27.3c1.4-7.9-1.9-9.3-6.6-7.8
		c-4.7,1.5-26,10.8-26,10.8l-8.7,10.9l-6.5-2.4l9.6-14.9l29.7-16.5l30.2,1.5L353.5,199.9z M350,231.5c0.3-2.5-3.6-26.2-3.6-26.2
		l-9.6,1c-0.2,0.8-1.5,8-2.7,15.3c-1.3,7.9-2.7,16-2.7,16s10,0.8,13,0C347.5,236.7,349.7,234,350,231.5z"/>
	<polygon class="st7" points="363.9,588.6 363.9,607.4 362.6,607.8 351.2,614.2 350.2,614.8 345.8,589.4 363.9,581.3 	"/>
	<polygon class="st8" points="353.7,560.9 363.9,581.3 345.8,589.4 332.9,561.9 335.6,559.5 342.7,552.8 	"/>
	<path class="st0" d="M356.3,271.9c0.6-0.2,1.5-0.3,2.5-0.2c0.2,0,0.5,0,0.7,0.1c0,0,0,0,0,0c0.2,0,0.5,0.1,0.7,0.1
		c0.3,0.1,0.7,0.1,1,0.2c1.2,0.3,2.4,0.6,3.8,1c0.4,0.1,0.8,0.3,1.1,0.4c1.5,0.5,3.1,1.1,4.7,1.8c0.4,0.1,0.7,0.3,1.1,0.5
		c1,0.4,1.9,0.8,2.8,1.2c0.4,0.2,0.9,0.4,1.3,0.6c2.2,0.9,4.3,1.9,5.9,2.6c1.5,0.6,2.6,0.1,3.4-1.2c0.1-0.2,0.2-0.4,0.3-0.6
		c0.3-0.6,0.5-1.3,0.7-2.1c0.1-0.3,0.1-0.5,0.2-0.8c0.2-0.9,0.3-1.8,0.4-2.8c0-0.4,0.1-0.8,0.1-1.1c0,0,0-0.1,0-0.1l0.3,0.1
		c0,0,23.6,27.4,37,61.9L392.8,350l-80.6-24.1l-13.5-5.1L266,308.4l1-28.1l6.9-10c-3.6,2.6-6,4.5-6,4.5l-27.7,36.5l-6.1-4.1
		c0,0,10.7-33.5,11.7-35c1-1.5,18.5-29.7,18.5-29.7l8.5-13.1l6,3.3l-20.8,32.9c0,0,23.8-4.9,43.7-20.5l29.8,16.1l0,0l0,0l18.5,12.5
		C350,273.6,351.7,273.4,356.3,271.9z"/>
	<path class="st5" d="M358.5,501.2l-2.1,57.2c-0.9,0.9-1.8,1.8-2.6,2.5l-11-8.1l-7.2,6.7l2-58.3H358.5z"/>
	<polygon class="st9" points="347.3,352.9 352.2,368.1 343.6,367.4 338.4,350.2 	"/>
	<polygon class="st7" points="345.8,589.4 350.2,614.8 334.5,622.7 332.9,619.7 327,604.3 325.4,600.2 	"/>
	<path class="st9" d="M350,231.5l-15.9-9.9c1.2-7.3,2.5-14.5,2.7-15.3l9.6-1C346.5,205.3,350.4,228.9,350,231.5z"/>
	<path class="st8" d="M332.9,561.9l12.8,27.5l-20.4,10.8L312.9,568c0,0,3.8-1.6,8.3-3.2C325.4,563.3,330.2,561.9,332.9,561.9z"/>
	<polygon class="st2" points="339.5,260.2 339.5,265.5 331.5,261.2 331.5,261.2 331.4,261.1 301.6,245.1 278.7,232.7 272.7,229.4 
		275.1,225.6 281.7,228 317.9,241.3 339.5,249.3 	"/>
	<path class="st2" d="M339.5,265.5v-5.3l21.6,11.8c-0.4-0.1-0.7-0.1-1-0.2c-0.2,0-0.5-0.1-0.7-0.1c0,0,0,0,0,0
		c-0.3,0-0.5-0.1-0.7-0.1c-1-0.1-1.8,0-2.5,0.2c-4.6,1.5-6.2,1.8-6.2,1.8l-18.5-12.5L339.5,265.5z"/>
	<path class="st3" d="M334.1,221.6l15.9,9.9c-0.3,2.5-2.5,5.2-5.6,6.1c-3,0.8-13,0-13,0S332.8,229.5,334.1,221.6z"/>
	<path class="st5" d="M330.4,494.8l-9.2,70c-4.5,1.6-8.3,3.2-8.3,3.2l-9.9,1.7l9.9-90.1L330.4,494.8z"/>
	<path class="st0" d="M388.6,361.1c-3.1,0-33.8-10.3-52-16.9c-6-2.2-10.7-4-12.6-4.9c-7.4-3.5-9.3-1-8.5,2.4
		c0.8,3.4,5.2,17.1,6.9,24c1.7,6.9,4.7,6.8,4.7,6.8l56.1,7.4l-5.7,14.2l-63.4-18.8l-1.7-6l-9.2-32.5l8.9-10.9l80.6,24.1l31.4-16.7
		c0,0,3.8-3.3,6.8,0c3,3.3,9.9,11.9,9.9,11.9l-10.1,48.6l2.2,3.8l-8.1-13.1c5.9-6.9,6.6-25.4,6.9-33.1c0.3-7.8-4.4-4-16.1,1.5
		c-9.5,4.6-18.8,7.2-24.2,8c-0.2,0-0.4,0-0.5,0.1C390.1,361,389.2,361.1,388.6,361.1z"/>
	<path class="st0" d="M325.4,600.2l1.6,4l-49.2,27.5c-1.3-2.6-2.4-5.2-3.4-7.7c-5.5-13.5-7.8-25-7.8-25l11.7-25.3l10-1.7l14.8-2.5
		l9.9-1.7L325.4,600.2z"/>
	<path class="st1" d="M316.4,206.3c4.7-1.5,8-0.2,6.6,7.8c-1.4,7.9-5.1,27.3-5.1,27.3L281.7,228l8.7-10.9
		C290.4,217.1,311.6,207.8,316.4,206.3z"/>
	<path class="st1" d="M278.7,232.7l22.9,12.4c-20,15.6-43.7,20.5-43.7,20.5L278.7,232.7z"/>
	<path class="st1" d="M266,308.4l32.6,12.4c-9.3,15.2-28.5,36.7-29,37.3l-8.4-21.3L266,308.4z"/>
	<polygon class="st1" points="291.9,406.1 308.3,414.9 319.9,469.2 304.3,456.2 289.2,410.8 291.9,406.1 	"/>
	<path class="st1" d="M327,604.3l6,15.4l-1-2l-16.3,9.8h0l-29.8,16.1l-1.3,0.3c-2.5-3.9-4.8-7.9-6.7-12L327,604.3z"/>
	<path class="st1" d="M277.1,377.9l-5.3-14.3l8-7.9c6.6-4.2,7.9-0.2,7.6,2.3C287.1,360.6,277.1,377.9,277.1,377.9z"/>
	<path class="st5" d="M282.7,404.5L263.1,530l-11.5-20.4c-0.4-0.7-0.7-1.4-0.9-2.1c-0.7-2.1-0.8-4.4-0.2-6.5l26.1-111L282.7,404.5z"
		/>
	<path class="st0" d="M287.5,358c0.3-2.5-1-6.6-7.6-2.3l14.5-14.4l5.6,18.3l-19.4,24.9l-0.9,0.4l-2.5-6.9
		C277.1,377.9,287.1,360.6,287.5,358z"/>
	<path class="st0" d="M280.6,384.4l19.4-24.9l-5.6-18.3l-14.5,14.4l-8,7.9l-2.2-5.6c0,0,0,0,0,0c0.5-0.6,19.7-22.1,29-37.3l13.5,5.1
		l-8.9,10.9l9.2,32.5l-20.6,36.8l-2.7,4.8l-0.9-2.6l-8.7-23.5L280.6,384.4z"/>
	<path class="st1" d="M274.3,624.1c1,2.5,2.2,5.1,3.4,7.7c1.9,4,4.2,8.1,6.7,12l-19.7,3.8l-1.7,0c0,0-3.2-8.4-6.4-18L274.3,624.1z"
		/>
	<path class="st0" d="M270.3,565.5c3,1.1,6.4,3.5,7.8,8.3l-11.7,25.3c0,0,2.3,11.4,7.8,25l-17.7,5.4c-1.1-3.2-2.2-6.6-3.1-9.9
		c-1.9-6.3-3.3-12-3.5-15.4c-0.5-10.4,9.1-31.6,17.6-39.5C268.5,564.9,269.4,565.1,270.3,565.5z"/>
	<path d="M249.2,378.9c3.3-12.5-9-67.6-9-67.6l27.7-36.5c0,0,2.4-1.9,6-4.5l-6.9,10l-1,28.1l-4.8,28.4l8.4,21.3c0,0,0,0,0,0l2.2,5.6
		l5.3,14.3l-1.9,0.8l-4.9-11.4h-15.7L249.2,378.9L249.2,378.9z"/>
	<path class="st0" d="M244,576.6c16.6-9.3,20.4-12,20.7-12.2c-0.4,0.6-14.5,18.8-19.3,24.9c-4.8,6.2-11.9,13.4-14.7,21.7
		c-3-3.4-16.7-9.7-16.7-9.7c3.2-6.4,8.9-13.2,19-18.7C237.2,580.4,240.9,578.4,244,576.6L244,576.6z"/>
	<path class="st1" d="M228.9,619.7c0,0,18.7-1.5,24.6,0c1,3.3,2.1,6.7,3.1,9.9c3.2,9.6,6.4,18,6.4,18l-30.2-1
		c-1.1-2.1-3.1-4.9-5.6-7.9c0,0,0,0,0,0C227.2,638.3,227.6,628.3,228.9,619.7z"/>
	<polygon class="st8" points="239.4,501.2 251.5,531.3 230.1,543.5 216.7,511.5 	"/>
	<path class="st5" d="M250.7,507.6c0.2,0.7,0.6,1.4,0.9,2.1l11.5,20.4l12.2,15.8l13.9-102.4l13.8,25.8l-14.8,102.9l-10,1.7
		c-1.4-4.8-4.8-7.2-7.8-8.3v0l-20.3-57.7L250.7,507.6z"/>
	<path class="st6" d="M250.1,507.8l-1.8-5.2l-1.7-30.5l28.7-93.3l0-0.1l1.9-0.8l2.5,6.9l8.7,23.5l0.9,2.6l15.1,45.3l15.6,13
		l26.5,22.2l40.3-1.8l7.3-16.1l14.2,30.1l1.6-0.9c-5.8,4.3-13.2,9.3-19.6,13.4c-0.5,0.4-1.1,0.7-1.6,1v-19.3l-20.1,1.4v44.3v0
		c-3.2,4.4-7.8,10.5-12,14.9l2.1-57.2h-21l-2,58.3l-2.6,2.4c-2.7,0-7.5,1.4-11.7,2.9l9.2-70l-17.5-15.3l-9.9,90.1l-14.8,2.5
		L303,469.2l-13.8-25.8l-18.8,119.1l-11.5-30.1l23.9-128l-6.2-10.5l-26.1,107c-0.5,2.2-0.5,4.4,0.2,6.5L250.1,507.8z"/>
	<polygon class="st0" points="219.9,339.3 248.9,379.5 239.5,399.1 237.5,398.1 202.7,346.5 	"/>
	<path class="st0" d="M232,414.7c0,0,11.8,59.8,14.5,57.5l1.7,30.5l1.8,5.2l20.3,57.7v0c-0.9-0.4-1.9-0.6-2.7-0.8
		c-1.7-0.3-2.9-0.3-2.9-0.3l-13.3-33.2l-12-30.1l-9.9-24.7l6.3-1.8l-12.9-62.6l-0.1-1.2l-1.2-20.3l-21-43.1l2.1-0.9l34.7,51.6l2,1
		L232,414.7z"/>
	<path class="st5" d="M246.6,472.2c-2.7,2.4-14.5-57.5-14.5-57.5l7.4-15.6l9.4-19.6l0.3-0.6l5.5-11.5h15.7l4.9,11.4l0,0.1
		L246.6,472.2z"/>
	<path class="st8" d="M264.7,564.4c-0.3,0.2-4.1,2.9-20.7,12.2l-13.9-33.2l21.3-12.2L264.7,564.4
		C264.7,564.4,264.7,564.4,264.7,564.4z"/>
	<polygon class="st8" points="229.5,476.5 239.4,501.2 216.7,511.5 204.9,483.4 	"/>
	<path class="st0" d="M234.1,307.1l-5.8-6.3l-3.8-4.1v-20.3l12.7-23.3l27.1-10.7c0,0-17.5,28.1-18.5,29.7
		C244.7,273.6,234.1,307.1,234.1,307.1z"/>
	<polygon class="st7" points="216.7,511.5 230.1,543.5 185.3,569 182.4,561.9 170.4,532.5 	"/>
	<path class="st0" d="M228.9,619.7c0.5-3.3,1.1-6.4,1.9-8.6c2.8-8.4,9.9-15.5,14.7-21.7c4.7-6.1,18.8-24.3,19.3-24.9c0,0,0,0,0,0
		s1.2,0,2.9,0.3c-8.5,7.9-18.1,29.1-17.6,39.5c0.2,3.4,1.6,9.2,3.5,15.4C247.6,618.2,228.9,619.7,228.9,619.7z"/>
	<polygon class="st0" points="222.9,412.1 235.8,474.7 229.5,476.5 204.9,483.4 187.8,488.3 178.7,420.7 222.8,410.8 	"/>
	<polygon class="st0" points="221.6,390.5 222.8,410.8 178.7,420.7 169.5,422.7 169.5,346.4 172.2,343.6 190.5,346.1 200.6,347.4 	
		"/>
	<path class="st1" d="M214.1,601.4c0,0,13.7,6.3,16.7,9.7c-0.8,2.3-1.4,5.3-1.9,8.6c-1.3,8.6-1.7,18.6-1.7,19
		c-3.2-3.8-7.1-7.9-10.3-11.2c-3.6-3.7-6.4-6.3-6.4-6.3S208.8,612,214.1,601.4z"/>
	<polygon class="st7" points="204.9,483.4 216.7,511.5 170.4,532.5 158.2,502.7 158.2,502.6 156,497.3 187.8,488.3 	"/>
	<path class="st0" d="M182.4,561.9L182.4,561.9l3,7.1l21.4,52.2h3.8c0,0,2.8,2.6,6.4,6.3l-0.8,1"/>
	<path class="st7" d="M244,576.6L244,576.6c-3.2,1.8-6.8,3.8-11,6.1c-10.1,5.5-15.8,12.4-19,18.7c-5.3,10.5-3.6,19.8-3.6,19.8h-3.8
		L185.3,569l44.8-25.6L244,576.6z"/>
	<polygon class="st1" points="169.5,346.4 169.5,422.7 145.3,428.1 145.2,426.8 145.2,395.9 145.2,371.8 	"/>
	<polygon class="st1" points="156,497.3 154.2,497.8 145.3,428.1 169.5,422.7 178.7,420.7 187.8,488.3 	"/>
	<path class="st10" d="M336.8,206.3l9.6-1c0,0,3.9,23.7,3.5,26.2c-0.3,2.5-2.5,5.2-5.6,6.1c-3,0.8-13,0-13,0S336.3,208,336.8,206.3z
		"/>
	<polygon class="st10" points="245.7,214.8 339.5,249.3 339.5,265.5 	"/>
	<path class="st10" d="M331.4,261.2l18.6,12.5c0,0,1.7-0.3,6.2-1.8c4.6-1.5,18.5,5.1,25.6,8.1c7.1,3,4.8-20,4.8-20L355,240.2
		l-15.5,9.1"/>
	<polygon class="st10" points="145.2,371.8 172.2,343.6 200.6,347.4 221.6,390.5 222.9,412.1 235.8,474.7 154.2,497.8 145.2,426.8 	
		"/>
	<line class="st10" x1="145.3" y1="428.1" x2="222.8" y2="410.9"/>
	<path class="st10" d="M156,497.3l50.7,124h3.8c0,0-4.3-23.8,22.6-38.5s31.7-18.3,31.7-18.3l-35.2-88"/>
	<line class="st10" x1="170.4" y1="532.5" x2="239.4" y2="501.2"/>
	<line class="st10" x1="185.3" y1="569" x2="251.5" y2="531.3"/>
	<path class="st10" d="M210.5,621.2c0,0,18.3,17.2,22.3,25.4l31.9,1l21-4.1l29.8-16.1"/>
	<polyline class="st10" points="332.9,561.9 345.8,589.5 350.2,614.8 	"/>
	<line class="st10" x1="312.9" y1="568" x2="332.9" y2="619.7"/>
	<path class="st10" d="M278.2,573.8l-11.7,25.4c0,0,5,24.8,18,44.6"/>
	<path class="st10" d="M227.2,638.7c0,0,0.8-19.3,3.6-27.6c2.8-8.4,9.9-15.5,14.7-21.7c4.8-6.2,19.3-24.9,19.3-24.9
		s10.6-0.3,13.4,9.4l34.7-5.8c0,0,14.5-6.1,20-6.1l9.8-9.1l11,8.1l10.1,20.5v26.1"/>
	<path class="st10" d="M263,647.5c0,0-12.5-32.9-13-43.3c-0.5-10.4,9.1-31.6,17.6-39.5"/>
	<path class="st10" d="M377.8,604.3c0,0-0.3-15.9,1.3-18.1c1.5-2.2,10.5-3.4,11.7-0.8s1.9,3,1.9,3s3.4-6.4,6.4-5.9
		c3,0.5,9.3,5.2,9.3,5.2s4.9-4.5,5.4-5.3c0.5-0.8-3.2-17.3-3.2-17.3s-4.1-9.1-3.8-12.4c0,0-8.1-12.9-8.1-16.2l-26.4,1.5
		c0,0-10.9,16.2-18.5,22.8"/>
	<path class="st10" d="M372.2,538.1l4.6-13.4c0,0,20.4-12.8,32.9-22"/>
	<path class="st10" d="M398.6,536.6c0,0,4.9-8.6,13.6-11.7"/>
	<line class="st10" x1="390.1" y1="516.1" x2="404.5" y2="529.6"/>
	<polyline class="st10" points="419.4,531 416.6,548.5 407.2,556 	"/>
	<path class="st10" d="M435.9,541.4c0,0-2.7,9-6.1,12.6c-3.4,3.5-19,12.3-19,12.3"/>
	<path class="st10" d="M393.8,609.6c0,0-2.8-17.2-2.2-22.6"/>
	<path class="st10" d="M408.3,587.8c0,0-1.2,22.1,0,25"/>
	<path class="st10" d="M413.7,582.5c0,0,21.6-11,30.8-24.1"/>
	<path class="st10" d="M416.3,581.1c0,0,12.3,17.8,1.8,32"/>
	<path class="st10" d="M428,573.7c0,0,9.9,11.4,8,27.7"/>
	<line class="st10" x1="447.4" y1="581.1" x2="435.3" y2="588.6"/>
	<path class="st10" d="M200.6,347.4l19.3-8.1l14.2-32.2l-9.6-10.4v-20.3l12.7-23.3l27.1-10.6l20.5-31.7l29.7-16.5l30.2,1.5l8.9,4.1
		l10.9,47.9l63.6-48.4L386.7,260l0.5,11.4c0,0,23.6,27.4,37,61.9c0,0,3.8-3.3,6.8,0c3,3.3,9.9,11.9,9.9,11.9l-10.1,48.6l12.5,21.3
		c0,0,1,27.4,3,38.2l-13.5,4.7l-29.7-11.2l-9.1,26.7l14.2,30.1l7.8-4.7l8.1,16.9l-11.8,9.1l7.2,6.1h8.9l7.6,10.4
		c0,0,6.8-0.3,7.9,5.3c1,5.6,0.8,11.7,0.8,11.7s5.1,1.3,5.6,8.9s-3,14.7-3,14.7s5.6,10.6,0.3,15.5s-11.2,3-11.2,3s0.3,18.5-18,12.7
		c0,0-9.6,3.5-12.2-3.5c0,0-25.9,0.8-27.1-1.8c-1.3-2.5-1-4.6-1-4.6l-15.2,4.6l-11.4,6.5l-16.7,8.5l-2.5-5.1l-20.3,12.2"/>
	<path class="st10" d="M264.2,242.5c0,0-17.5,28.1-18.5,29.7c-1,1.5-11.7,35-11.7,35l6.1,4.1l27.7-36.5c0,0,21.8-16.9,32.1-21"/>
	<polyline class="st11" points="371.2,324.4 394.3,325.9 406,319.8 	"/>
	<polyline class="st11" points="375.5,335 399.6,336.8 413.3,328.4 	"/>
	<line class="st10" x1="219.9" y1="339.3" x2="249.1" y2="379.9"/>
	<line class="st10" x1="202.7" y1="346.5" x2="237.4" y2="398.1"/>
	<path class="st10" d="M240.1,311.3c0,0,12.3,55.1,9,67.6"/>
	<path class="st10" d="M270.3,565.5l-22.1-62.8l-1.7-30.5c-2.7,2.4-14.5-57.5-14.5-57.5l22.6-47.3h15.7l5,11.5l-28.7,93.3"/>
	<polyline class="st10" points="273.9,270.2 267,280.3 266,308.4 312.1,325.9 303.3,336.8 314.2,375.3 377.6,394.1 389.7,363.9 
		397.8,362.6 420.7,377.6 433,397.5 	"/>
	<polyline class="st10" points="266,308.4 261.2,336.8 271.8,363.6 294.4,341.3 300,359.6 280.6,384.4 	"/>
	<polyline class="st10" points="271.8,363.6 288.3,408.3 304.3,456.2 346.4,491.4 386.7,489.6 394,473.5 	"/>
	<polyline class="st10" points="312.1,325.9 392.8,350 424.2,333.2 	"/>
	<path class="st10" d="M383.3,379.9l-56.1-7.4c0,0-3,0.2-4.7-6.8c-1.7-6.9-6.1-20.6-6.9-24c-0.8-3.4,1-5.9,8.5-2.4
		c7.4,3.5,60.4,21.8,64.6,21.8c4.2,0,15.5-2.7,27.2-8.3c11.7-5.6,16.4-9.3,16.1-1.5c-0.3,7.8-1,26.2-6.9,33.1"/>
	<line class="st10" x1="312.5" y1="369.3" x2="289.2" y2="410.9"/>
	<polyline class="st10" points="291.9,406.1 341.1,432.4 371.6,414.9 	"/>
	<polyline class="st10" points="377.6,394.1 370.6,415.4 373.6,434.5 403.1,446.8 	"/>
	<line class="st10" x1="371.6" y1="410.9" x2="395.6" y2="410.9"/>
	<line class="st10" x1="361.2" y1="272.1" x2="339.5" y2="260.2"/>
	<path class="st10" d="M250.5,501.1l26.1-111l6.2,14.5L263.1,530l-11.5-20.3C250.1,507.1,249.7,504,250.5,501.1z"/>
	<polyline class="st10" points="258.8,532.5 270.3,562.6 289.2,443.4 303,469.2 288.2,572.1 	"/>
	<polyline class="st10" points="303,569.6 312.9,479.6 330.4,494.8 321.2,564.8 	"/>
	<polyline class="st10" points="335.5,559.5 337.5,501.2 358.5,501.2 356.4,558.4 	"/>
	<polyline class="st10" points="368.4,543.5 368.4,499.2 388.5,497.8 388.5,517.1 	"/>
	<polygon points="340.9,458.8 353.4,471.1 386,469 384.6,474.7 352.4,477.4 340.3,464.3 	"/>
	<polygon points="344.1,447.9 356.6,460.2 389.3,460.7 387.9,466.5 355.6,466.5 343.6,453.4 	"/>
</g>
</svg>
