<?xml version="1.0" encoding="UTF-8" standalone="no"?>
<!-- Generator: Adobe Illustrator 24.1.3, SVG Export Plug-In . SVG Version: 6.00 Build 0)  -->

<svg
   version="1.1"
   id="Layer_1"
   x="0px"
   y="0px"
   viewBox="0 0 310.15021 458.29997"
   xml:space="preserve"
   sodipodi:docname="full_logo_to_vec-02_cropped.svg"
   width="310.15021"
   height="458.29999"
   inkscape:version="1.1 (c68e22c387, 2021-05-23)"
   xmlns:inkscape="http://www.inkscape.org/namespaces/inkscape"
   xmlns:sodipodi="http://sodipodi.sourceforge.net/DTD/sodipodi-0.dtd"
   xmlns="http://www.w3.org/2000/svg"
   xmlns:svg="http://www.w3.org/2000/svg"><defs
   id="defs283" /><sodipodi:namedview
   id="namedview281"
   pagecolor="#505050"
   bordercolor="#eeeeee"
   borderopacity="1"
   inkscape:pageshadow="0"
   inkscape:pageopacity="0"
   inkscape:pagecheckerboard="0"
   showgrid="false"
   inkscape:zoom="1.0001187"
   inkscape:cx="154.48166"
   inkscape:cy="228.47287"
   inkscape:window-width="1920"
   inkscape:window-height="1027"
   inkscape:window-x="-8"
   inkscape:window-y="-8"
   inkscape:window-maximized="1"
   inkscape:current-layer="Layer_1" />
<style
   type="text/css"
   id="style2">
	.st0{fill:#FFFFFF;}
	.st1{fill:#CCCCCC;}
	.st2{fill:#F5EB21;}
	.st3{fill:#47B15A;}
	.st4{fill:#A4A027;}
	.st5{fill:#9D0D10;}
	.st6{fill:#F10D0B;}
	.st7{fill:#707070;}
	.st8{fill:#444444;}
	.st9{fill:#23772D;}
	.st10{fill:none;stroke:#000000;stroke-width:5;stroke-linecap:round;stroke-linejoin:round;stroke-miterlimit:10;}
	.st11{fill:none;stroke:#000000;stroke-width:6;stroke-linecap:round;stroke-linejoin:round;stroke-miterlimit:10;}
	.st12{fill:none;stroke:#000000;stroke-width:4;stroke-linecap:round;stroke-linejoin:round;stroke-miterlimit:10;}
	.st13{fill:none;stroke:#000000;stroke-width:10;stroke-linecap:round;stroke-linejoin:round;stroke-miterlimit:10;}
</style>
<g
   id="g278"
   transform="translate(-142.7,-191.8)">
	<path
   class="st0"
   d="m 415.9,498.9 8.1,16.9 -11.8,9.1 c -3.1,1.1 -5.7,2.8 -7.7,4.7 l -14.4,-13.5 c 6.4,-4.2 13.8,-9.2 19.6,-13.4 z"
   id="path4" />
	<polygon
   class="st1"
   points="421.6,510.6 399.5,524.9 403.1,529.6 424,515.8 "
   id="polygon6" />
	<path
   class="st0"
   d="m 249.2,378.9 -0.3,0.6 -29,-40.2 5.8,-13 8.4,-19.1 6.1,4.1 c 0,0 12.2,55 9,67.6 z"
   id="path8" />
	<path
   class="st0"
   d="m 450.1,567.2 c 0.4,6.1 -1.8,11.8 -2.7,13.9 l -6.1,3.7 c 0.1,-0.3 1.7,-7.4 -4.4,-18.1 2.9,-2.6 5.6,-5.5 7.6,-8.4 0,0 5.1,1.3 5.6,8.9 z"
   id="path10" />
	<path
   class="st0"
   d="m 447,581.9 c 0,0 5.6,10.7 0.3,15.5 -5,4.5 -10.5,3.2 -11.1,3 0.1,-0.7 0.1,-1.4 0.1,-2.1 0.1,-3.6 -0.3,-6.8 -1,-9.8 l 6.1,-3.7 c 0,0 0,0 0,0 l 6.1,-3.7 c -0.3,0.5 -0.5,0.8 -0.5,0.8 z"
   id="path12" />
	<path
   class="st0"
   d="m 446.4,453.2 -13.5,4.7 -29.8,-11.2 -29.5,-12.3 -3,-19 1.5,-4.6 5.4,-16.8 5.7,-14.2 6.5,-16 1.7,-0.3 0.5,-0.1 5.9,-0.9 22.8,14.9 4.2,6.9 8.1,13.1 10.3,17.5 c 0.1,0.1 1.1,27.5 3.2,38.3 z"
   id="path14" />
	<path
   class="st0"
   d="m 444.5,558.3 c -2,2.9 -4.7,5.8 -7.6,8.4 -2,-3.5 -4.8,-7.3 -8.8,-11.4 0.7,-0.5 1.3,-1 1.6,-1.4 3.4,-3.5 6.1,-12.6 6.1,-12.6 0,0 6.8,-0.3 7.9,5.3 1,5.7 0.8,11.7 0.8,11.7 z"
   id="path16" />
	<path
   class="st1"
   d="m 436.9,566.8 c 6.2,10.7 4.5,17.8 4.4,18.1 0,0 0,0 0,0 l -6.1,3.7 c -2.2,-8.9 -6.9,-14.5 -7.2,-14.8 0,0 0,0 0,0 3,-2.1 6.1,-4.5 8.9,-7 z"
   id="path18" />
	<path
   class="st1"
   d="m 422.3,598.1 14,0.3 c 0,0.7 -0.1,1.4 -0.1,2.1 0,0 -0.1,0 -0.1,0 0,0 0,0.3 0,0.9 0,0 0,0.1 0,0.1 -0.3,3.7 -2.3,16.7 -18,11.7 3.6,-5 4.5,-10.3 4.2,-15.1 z"
   id="path20" />
	<path
   d="m 424.9,384.4 -4.2,-6.9 -22.8,-14.9 -5.9,0.9 -0.4,-2.7 c 5.4,-0.8 14.7,-3.5 24.2,-8 11.7,-5.6 16.4,-9.3 16.1,-1.5 -0.4,7.8 -1.1,26.2 -7,33.1 z m -4,-15.1 v -12.6 l -11.4,4.3 z"
   id="path22" />
	<path
   class="st0"
   d="m 428.1,555.4 c -3,-3.1 -6.6,-6.4 -11.1,-9.7 l 2.4,-14.7 h 8.9 l 7.6,10.4 c 0,0 -2.7,9 -6.1,12.6 -0.4,0.4 -1,0.9 -1.7,1.4 z"
   id="path24" />
	<path
   class="st0"
   d="m 435.3,588.6 c 0.7,2.9 1.2,6.2 1,9.8 l -14,-0.3 c -0.7,-9.1 -5.7,-16.6 -6,-17 2.6,-1.5 7,-4 11.7,-7.4 0.3,0.4 5.1,6 7.3,14.9 z"
   id="path26" />
	<polygon
   class="st2"
   points="420.2,205.3 428,199.4 386.7,260 375.5,253 "
   id="polygon28" />
	<path
   class="st1"
   d="m 422.3,598.1 c 0.4,4.9 -0.6,10.2 -4.2,15.1 0,0 -6,2.2 -9.8,-0.4 -0.6,-1.6 -0.6,-8.7 -0.4,-15 z"
   id="path30" />
	<polygon
   class="st3"
   points="420.9,356.8 420.9,369.3 409.5,361 "
   id="polygon32" />
	<polygon
   class="st4"
   points="420.2,205.3 375.5,253 365.6,246.8 "
   id="polygon34" />
	<path
   class="st0"
   d="m 417,545.7 c -4.8,-3.6 -10.4,-7.3 -17.1,-11.1 1,-1.4 2.5,-3.2 4.6,-5 2.1,-1.8 4.7,-3.6 7.7,-4.7 l 7.2,6.1 z"
   id="path36" />
	<path
   class="st1"
   d="m 399.9,534.6 c 6.7,3.8 12.4,7.5 17.1,11.1 l -0.4,2.8 -9.4,7.5 c -0.3,-1.3 -0.5,-2.4 -0.5,-3.2 0,0 -8.1,-12.9 -8.1,-16.2 0,-0.1 0.4,-0.8 1.3,-2 z"
   id="path38" />
	<path
   class="st0"
   d="m 422.3,598.1 -14.4,-0.3 c 0.1,-5.3 0.4,-10 0.4,-10 0,0 4.9,-4.5 5.4,-5.3 v 0 c 0.1,0 1.1,-0.5 2.6,-1.4 0.3,0.4 5.3,7.9 6,17 z"
   id="path40" />
	<path
   class="st1"
   d="m 428.1,555.4 c 3.9,4.1 6.8,7.9 8.8,11.4 -2.8,2.6 -5.9,4.9 -8.8,7 0,0 0,0 0,0 -4.7,3.3 -9.1,5.9 -11.7,7.4 -1.5,0.8 -2.5,1.3 -2.6,1.4 0.4,-0.8 -2.2,-12.5 -3,-16.2 0,-0.1 12.2,-7 17.3,-11 z"
   id="path42" />
	<path
   class="st1"
   d="m 428.1,555.4 c -5.2,4 -17.4,10.9 -17.4,10.9 -0.1,-0.7 -0.2,-1.1 -0.2,-1.1 0,0 -2.3,-5.2 -3.3,-9.2 l 9.4,-7.5 0.4,-2.8 c 4.5,3.3 8.1,6.6 11.1,9.7 z"
   id="path44" />
	<path
   class="st1"
   d="m 392.1,597.4 15.8,0.3 c -0.2,6.3 -0.2,13.4 0.4,15 -1,-0.7 -1.8,-1.7 -2.4,-3.2 0,0 -5.9,0.2 -12.2,0.1 v 0 c 0.1,0 -0.9,-6.1 -1.6,-12.2 z"
   id="path46" />
	<path
   class="st0"
   d="m 390.1,516.1 14.4,13.5 c -2,1.8 -3.6,3.7 -4.6,5 -0.9,1.2 -1.3,1.9 -1.3,1.9 l -26.4,1.5 4.6,-13.4 c 0,0 5.1,-3.2 11.7,-7.5 0.6,-0.3 1.1,-0.7 1.6,-1 z"
   id="path48" />
	<path
   class="st0"
   d="m 355.6,466.5 h 32.3 l 1.4,-5.7 -32.6,-0.5 -12.5,-12.3 -0.5,5.5 z m 30.4,2.5 -32.6,2.1 -12.5,-12.3 -0.6,5.5 12,13.1 32.3,-2.7 z m 17.1,-22.2 -9.1,26.7 -7.3,16.1 -40.3,1.8 -26.5,-22.2 -11.5,-54.3 32.7,17.5 29.6,-17 3,19 z"
   id="path50" />
	<path
   class="st0"
   d="m 407.2,556 c 1,4 3.3,9.2 3.3,9.2 0,0 0.1,0.4 0.2,1.1 0.8,3.7 3.4,15.4 3,16.2 v 0 c -0.5,0.8 -5.4,5.3 -5.4,5.3 0,0 -6.3,-4.7 -9.3,-5.2 -3,-0.5 -6.4,5.9 -6.4,5.9 0,0 -0.4,-0.3 -1,-1.4 v 0 c -0.3,-0.4 -0.5,-1 -0.9,-1.7 -1.2,-2.5 -10.1,-1.4 -11.7,0.8 -0.3,0.4 -0.5,1.2 -0.7,2.4 h -14.6 v -7.3 l -10.1,-20.5 c 0.8,-0.7 1.7,-1.6 2.6,-2.5 4.2,-4.3 8.9,-10.5 12,-14.9 v 0 c 2.3,-3.2 3.8,-5.4 3.8,-5.4 l 26.4,-1.5 c 0,3.3 8.1,16.2 8.1,16.2 0.2,0.9 0.4,2 0.7,3.3 z"
   id="path52" />
	<path
   class="st0"
   d="m 399,582.5 c 3,0.5 9.3,5.2 9.3,5.2 0,0 -0.3,4.7 -0.4,10 l -15.8,-0.3 c -0.4,-4.1 -0.7,-8.2 -0.5,-10.3 0.6,1.1 1,1.4 1,1.4 0,0 3.4,-6.5 6.4,-6 z"
   id="path54" />
	<path
   class="st1"
   d="m 393.8,609.6 c -6.9,-0.1 -14.3,-0.5 -15,-1.9 -0.7,-1.4 -0.9,-2.7 -1,-3.5 0,0 0,-0.4 0,-1 0,0 0,0 0,0 0,-1.3 0,-3.6 0,-6.1 l 14.2,0.3 c 0.8,6.1 1.8,12.2 1.8,12.2 z"
   id="path56" />
	<polygon
   points="389.3,460.7 387.9,466.5 355.6,466.5 343.6,453.4 344.1,447.9 356.6,460.2 "
   id="polygon58" />
	<path
   d="m 336.6,344.2 c 18.2,6.6 48.9,16.9 52,16.9 0.6,0 1.5,-0.1 2.5,-0.2 0.2,0 0.3,-0.1 0.5,-0.1 l 0.4,2.7 -0.5,0.1 -1.7,0.3 -6.5,16 -56.1,-7.4 c 0,0 -3,0.2 -4.7,-6.8 -1.7,-6.9 -6.1,-20.6 -6.9,-24 -0.9,-3.4 1,-5.9 8.5,-2.4 1.7,0.9 6.4,2.7 12.5,4.9 z m 29.8,25.1 7.2,-8.3 -26.3,-8.1 -9,-2.8 5.2,17.2 8.6,0.7 z"
   id="path60" />
	<path
   class="st0"
   d="m 387,267.8 0.2,3.6 -0.3,-0.1 c 0.1,-1.2 0.1,-2.4 0.1,-3.5 z"
   id="path62" />
	<path
   class="st0"
   d="m 392.1,597.4 -14.2,-0.3 c 0.1,-3 0.2,-6.3 0.6,-8.5 0.2,-1.1 0.4,-2 0.7,-2.4 1.5,-2.2 10.5,-3.4 11.7,-0.8 0.3,0.7 0.6,1.3 0.9,1.7 v 0 c -0.4,2.1 -0.2,6.2 0.3,10.3 z"
   id="path64" />
	<polygon
   points="386,469 384.6,474.7 352.4,477.4 340.3,464.3 340.9,458.8 353.4,471.1 "
   id="polygon66" />
	<path
   class="st5"
   d="m 385.3,278.8 c -0.8,1.3 -1.9,1.8 -3.4,1.2 -1.7,-0.7 -3.7,-1.6 -5.9,-2.6 -0.4,-0.2 -0.9,-0.4 -1.3,-0.6 -0.9,-0.4 -1.9,-0.8 -2.8,-1.2 -0.4,-0.2 -0.7,-0.3 -1.1,-0.5 -1.6,-0.6 -3.2,-1.2 -4.7,-1.8 -0.4,-0.1 -0.8,-0.3 -1.1,-0.4 -1.3,-0.4 -2.6,-0.8 -3.8,-1 l -21.6,-11.8 v -10.9 l 47.4,21.9 c 0,0 0,0.1 0,0.1 0,0.4 -0.1,0.8 -0.1,1.1 -0.1,1 -0.2,1.9 -0.4,2.8 0,0.3 -0.1,0.5 -0.2,0.8 -0.2,0.8 -0.4,1.5 -0.7,2.1 -0.1,0.4 -0.2,0.6 -0.3,0.8 z"
   id="path68" />
	<path
   class="st1"
   d="m 363.9,588.6 h 14.6 c -0.3,2.2 -0.5,5.5 -0.6,8.5 -0.1,2.5 -0.1,4.8 0,6.1 l -13.9,4.2 v -18.8 z"
   id="path70" />
	<polygon
   class="st0"
   points="341.1,432.4 308.3,414.9 291.9,406.1 312.5,369.3 314.2,375.3 377.6,394.1 372.1,410.8 370.6,415.4 "
   id="polygon72" />
	<polygon
   class="st3"
   points="373.6,361 366.4,369.3 352.2,368.1 347.3,352.9 "
   id="polygon74" />
	<path
   class="st5"
   d="m 372.2,538.1 c 0,0 -1.5,2.3 -3.8,5.4 v -44.3 l 20.1,-1.4 v 19.3 c -6.7,4.3 -11.7,7.5 -11.7,7.5 z"
   id="path76" />
	<path
   class="st6"
   d="m 386.9,271.2 -47.4,-21.9 15.5,-9.1 8.9,5.6 v 0 l 0.5,2 1.3,-1 9.9,6.2 11.1,7 0.4,7.8 c 0,0 0,0 0,0 -0.1,1.1 -0.1,2.3 -0.2,3.4 z"
   id="path78" />
	<path
   class="st0"
   d="m 353.5,199.9 10.4,45.9 -8.9,-5.6 -15.5,9.1 -21.7,-8 c 0,0 3.7,-19.3 5.1,-27.3 1.4,-7.9 -1.9,-9.3 -6.6,-7.8 -4.7,1.5 -26,10.8 -26,10.8 l -8.7,10.9 -6.5,-2.4 9.6,-14.9 29.7,-16.5 30.2,1.5 z m -3.5,31.6 c 0.3,-2.5 -3.6,-26.2 -3.6,-26.2 l -9.6,1 c -0.2,0.8 -1.5,8 -2.7,15.3 -1.3,7.9 -2.7,16 -2.7,16 0,0 10,0.8 13,0 3.1,-0.9 5.3,-3.6 5.6,-6.1 z"
   id="path80" />
	<polygon
   class="st7"
   points="363.9,607.4 362.6,607.8 351.2,614.2 350.2,614.8 345.8,589.4 363.9,581.3 363.9,588.6 "
   id="polygon82" />
	<polygon
   class="st8"
   points="353.7,560.9 363.9,581.3 345.8,589.4 332.9,561.9 335.6,559.5 342.7,552.8 "
   id="polygon84" />
	<path
   class="st0"
   d="m 356.3,271.9 c 0.6,-0.2 1.5,-0.3 2.5,-0.2 0.2,0 0.5,0 0.7,0.1 0,0 0,0 0,0 0.2,0 0.5,0.1 0.7,0.1 0.3,0.1 0.7,0.1 1,0.2 1.2,0.3 2.4,0.6 3.8,1 0.4,0.1 0.8,0.3 1.1,0.4 1.5,0.5 3.1,1.1 4.7,1.8 0.4,0.1 0.7,0.3 1.1,0.5 1,0.4 1.9,0.8 2.8,1.2 0.4,0.2 0.9,0.4 1.3,0.6 2.2,0.9 4.3,1.9 5.9,2.6 1.5,0.6 2.6,0.1 3.4,-1.2 0.1,-0.2 0.2,-0.4 0.3,-0.6 0.3,-0.6 0.5,-1.3 0.7,-2.1 0.1,-0.3 0.1,-0.5 0.2,-0.8 0.2,-0.9 0.3,-1.8 0.4,-2.8 0,-0.4 0.1,-0.8 0.1,-1.1 0,0 0,-0.1 0,-0.1 l 0.3,0.1 c 0,0 23.6,27.4 37,61.9 l -31.5,16.5 -80.6,-24.1 -13.5,-5.1 -32.7,-12.4 1,-28.1 6.9,-10 c -3.6,2.6 -6,4.5 -6,4.5 l -27.7,36.5 -6.1,-4.1 c 0,0 10.7,-33.5 11.7,-35 1,-1.5 18.5,-29.7 18.5,-29.7 l 8.5,-13.1 6,3.3 -20.8,32.9 c 0,0 23.8,-4.9 43.7,-20.5 l 29.8,16.1 v 0 0 l 18.5,12.5 c 0,-0.1 1.7,-0.3 6.3,-1.8 z"
   id="path86" />
	<path
   class="st5"
   d="m 358.5,501.2 -2.1,57.2 c -0.9,0.9 -1.8,1.8 -2.6,2.5 l -11,-8.1 -7.2,6.7 2,-58.3 z"
   id="path88" />
	<polygon
   class="st9"
   points="347.3,352.9 352.2,368.1 343.6,367.4 338.4,350.2 "
   id="polygon90" />
	<polygon
   class="st7"
   points="345.8,589.4 350.2,614.8 334.5,622.7 332.9,619.7 327,604.3 325.4,600.2 "
   id="polygon92" />
	<path
   class="st9"
   d="m 350,231.5 -15.9,-9.9 c 1.2,-7.3 2.5,-14.5 2.7,-15.3 l 9.6,-1 c 0.1,0 4,23.6 3.6,26.2 z"
   id="path94" />
	<path
   class="st8"
   d="m 332.9,561.9 12.8,27.5 -20.4,10.8 -12.4,-32.2 c 0,0 3.8,-1.6 8.3,-3.2 4.2,-1.5 9,-2.9 11.7,-2.9 z"
   id="path96" />
	<polygon
   class="st2"
   points="331.5,261.2 331.4,261.1 301.6,245.1 278.7,232.7 272.7,229.4 275.1,225.6 281.7,228 317.9,241.3 339.5,249.3 339.5,260.2 339.5,265.5 "
   id="polygon98" />
	<path
   class="st2"
   d="m 339.5,265.5 v -5.3 l 21.6,11.8 c -0.4,-0.1 -0.7,-0.1 -1,-0.2 -0.2,0 -0.5,-0.1 -0.7,-0.1 0,0 0,0 0,0 -0.3,0 -0.5,-0.1 -0.7,-0.1 -1,-0.1 -1.8,0 -2.5,0.2 -4.6,1.5 -6.2,1.8 -6.2,1.8 l -18.5,-12.5 z"
   id="path100" />
	<path
   class="st3"
   d="m 334.1,221.6 15.9,9.9 c -0.3,2.5 -2.5,5.2 -5.6,6.1 -3,0.8 -13,0 -13,0 0,0 1.4,-8.1 2.7,-16 z"
   id="path102" />
	<path
   class="st5"
   d="m 330.4,494.8 -9.2,70 c -4.5,1.6 -8.3,3.2 -8.3,3.2 l -9.9,1.7 9.9,-90.1 z"
   id="path104" />
	<path
   class="st0"
   d="m 388.6,361.1 c -3.1,0 -33.8,-10.3 -52,-16.9 -6,-2.2 -10.7,-4 -12.6,-4.9 -7.4,-3.5 -9.3,-1 -8.5,2.4 0.8,3.4 5.2,17.1 6.9,24 1.7,6.9 4.7,6.8 4.7,6.8 l 56.1,7.4 -5.7,14.2 -63.4,-18.8 -1.7,-6 -9.2,-32.5 8.9,-10.9 80.6,24.1 31.4,-16.7 c 0,0 3.8,-3.3 6.8,0 3,3.3 9.9,11.9 9.9,11.9 l -10.1,48.6 2.2,3.8 -8.1,-13.1 c 5.9,-6.9 6.6,-25.4 6.9,-33.1 0.3,-7.8 -4.4,-4 -16.1,1.5 -9.5,4.6 -18.8,7.2 -24.2,8 -0.2,0 -0.4,0 -0.5,0.1 -0.8,0 -1.7,0.1 -2.3,0.1 z"
   id="path106" />
	<path
   class="st0"
   d="m 325.4,600.2 1.6,4 -49.2,27.5 c -1.3,-2.6 -2.4,-5.2 -3.4,-7.7 -5.5,-13.5 -7.8,-25 -7.8,-25 l 11.7,-25.3 10,-1.7 14.8,-2.5 9.9,-1.7 z"
   id="path108" />
	<path
   class="st1"
   d="m 316.4,206.3 c 4.7,-1.5 8,-0.2 6.6,7.8 -1.4,7.9 -5.1,27.3 -5.1,27.3 l -36.2,-13.4 8.7,-10.9 c 0,0 21.2,-9.3 26,-10.8 z"
   id="path110" />
	<path
   class="st1"
   d="m 278.7,232.7 22.9,12.4 c -20,15.6 -43.7,20.5 -43.7,20.5 z"
   id="path112" />
	<path
   class="st1"
   d="m 266,308.4 32.6,12.4 c -9.3,15.2 -28.5,36.7 -29,37.3 l -8.4,-21.3 z"
   id="path114" />
	<polygon
   class="st1"
   points="308.3,414.9 319.9,469.2 304.3,456.2 289.2,410.8 291.9,406.1 "
   id="polygon116" />
	<path
   class="st1"
   d="m 327,604.3 6,15.4 -1,-2 -16.3,9.8 v 0 l -29.8,16.1 -1.3,0.3 c -2.5,-3.9 -4.8,-7.9 -6.7,-12 z"
   id="path118" />
	<path
   class="st1"
   d="m 277.1,377.9 -5.3,-14.3 8,-7.9 c 6.6,-4.2 7.9,-0.2 7.6,2.3 -0.3,2.6 -10.3,19.9 -10.3,19.9 z"
   id="path120" />
	<path
   class="st5"
   d="M 282.7,404.5 263.1,530 251.6,509.6 c -0.4,-0.7 -0.7,-1.4 -0.9,-2.1 -0.7,-2.1 -0.8,-4.4 -0.2,-6.5 l 26.1,-111 z"
   id="path122" />
	<path
   class="st0"
   d="m 287.5,358 c 0.3,-2.5 -1,-6.6 -7.6,-2.3 l 14.5,-14.4 5.6,18.3 -19.4,24.9 -0.9,0.4 -2.5,-6.9 c -0.1,-0.1 9.9,-17.4 10.3,-20 z"
   id="path124" />
	<path
   class="st0"
   d="m 280.6,384.4 19.4,-24.9 -5.6,-18.3 -14.5,14.4 -8,7.9 -2.2,-5.6 c 0,0 0,0 0,0 0.5,-0.6 19.7,-22.1 29,-37.3 l 13.5,5.1 -8.9,10.9 9.2,32.5 -20.6,36.8 -2.7,4.8 -0.9,-2.6 -8.7,-23.5 z"
   id="path126" />
	<path
   class="st1"
   d="m 274.3,624.1 c 1,2.5 2.2,5.1 3.4,7.7 1.9,4 4.2,8.1 6.7,12 l -19.7,3.8 H 263 c 0,0 -3.2,-8.4 -6.4,-18 z"
   id="path128" />
	<path
   class="st0"
   d="m 270.3,565.5 c 3,1.1 6.4,3.5 7.8,8.3 l -11.7,25.3 c 0,0 2.3,11.4 7.8,25 l -17.7,5.4 c -1.1,-3.2 -2.2,-6.6 -3.1,-9.9 -1.9,-6.3 -3.3,-12 -3.5,-15.4 -0.5,-10.4 9.1,-31.6 17.6,-39.5 1,0.2 1.9,0.4 2.8,0.8 z"
   id="path130" />
	<path
   d="m 249.2,378.9 c 3.3,-12.5 -9,-67.6 -9,-67.6 l 27.7,-36.5 c 0,0 2.4,-1.9 6,-4.5 l -6.9,10 -1,28.1 -4.8,28.4 8.4,21.3 c 0,0 0,0 0,0 l 2.2,5.6 5.3,14.3 -1.9,0.8 -4.9,-11.4 h -15.7 z"
   id="path132" />
	<path
   class="st0"
   d="m 244,576.6 c 16.6,-9.3 20.4,-12 20.7,-12.2 -0.4,0.6 -14.5,18.8 -19.3,24.9 -4.8,6.2 -11.9,13.4 -14.7,21.7 -3,-3.4 -16.7,-9.7 -16.7,-9.7 3.2,-6.4 8.9,-13.2 19,-18.7 4.2,-2.2 7.9,-4.2 11,-6 z"
   id="path134" />
	<path
   class="st1"
   d="m 228.9,619.7 c 0,0 18.7,-1.5 24.6,0 1,3.3 2.1,6.7 3.1,9.9 3.2,9.6 6.4,18 6.4,18 l -30.2,-1 c -1.1,-2.1 -3.1,-4.9 -5.6,-7.9 0,0 0,0 0,0 0,-0.4 0.4,-10.4 1.7,-19 z"
   id="path136" />
	<polygon
   class="st8"
   points="239.4,501.2 251.5,531.3 230.1,543.5 216.7,511.5 "
   id="polygon138" />
	<path
   class="st5"
   d="m 250.7,507.6 c 0.2,0.7 0.6,1.4 0.9,2.1 l 11.5,20.4 12.2,15.8 13.9,-102.4 13.8,25.8 -14.8,102.9 -10,1.7 c -1.4,-4.8 -4.8,-7.2 -7.8,-8.3 v 0 l -20.3,-57.7 z"
   id="path140" />
	<path
   class="st6"
   d="m 250.1,507.8 -1.8,-5.2 -1.7,-30.5 28.7,-93.3 v -0.1 l 1.9,-0.8 2.5,6.9 8.7,23.5 0.9,2.6 15.1,45.3 15.6,13 26.5,22.2 40.3,-1.8 7.3,-16.1 14.2,30.1 1.6,-0.9 c -5.8,4.3 -13.2,9.3 -19.6,13.4 -0.5,0.4 -1.1,0.7 -1.6,1 v -19.3 l -20.1,1.4 v 44.3 0 c -3.2,4.4 -7.8,10.5 -12,14.9 l 2.1,-57.2 h -21 l -2,58.3 -2.6,2.4 c -2.7,0 -7.5,1.4 -11.7,2.9 l 9.2,-70 -17.5,-15.3 -9.9,90.1 -14.8,2.5 14.6,-102.9 -13.8,-25.8 -18.8,119.1 -11.5,-30.1 23.9,-128 -6.2,-10.5 -26.1,107 c -0.5,2.2 -0.5,4.4 0.2,6.5 z"
   id="path142" />
	<polygon
   class="st0"
   points="248.9,379.5 239.5,399.1 237.5,398.1 202.7,346.5 219.9,339.3 "
   id="polygon144" />
	<path
   class="st0"
   d="m 232,414.7 c 0,0 11.8,59.8 14.5,57.5 l 1.7,30.5 1.8,5.2 20.3,57.7 v 0 c -0.9,-0.4 -1.9,-0.6 -2.7,-0.8 -1.7,-0.3 -2.9,-0.3 -2.9,-0.3 l -13.3,-33.2 -12,-30.1 -9.9,-24.7 6.3,-1.8 -12.9,-62.6 -0.1,-1.2 -1.2,-20.3 -21,-43.1 2.1,-0.9 34.7,51.6 2,1 z"
   id="path146" />
	<path
   class="st5"
   d="m 246.6,472.2 c -2.7,2.4 -14.5,-57.5 -14.5,-57.5 l 7.4,-15.6 9.4,-19.6 0.3,-0.6 5.5,-11.5 h 15.7 l 4.9,11.4 v 0.1 z"
   id="path148" />
	<path
   class="st8"
   d="m 264.7,564.4 c -0.3,0.2 -4.1,2.9 -20.7,12.2 l -13.9,-33.2 21.3,-12.2 13.3,33.2 c 0,0 0,0 0,0 z"
   id="path150" />
	<polygon
   class="st8"
   points="229.5,476.5 239.4,501.2 216.7,511.5 204.9,483.4 "
   id="polygon152" />
	<path
   class="st0"
   d="m 234.1,307.1 -5.8,-6.3 -3.8,-4.1 v -20.3 l 12.7,-23.3 27.1,-10.7 c 0,0 -17.5,28.1 -18.5,29.7 -1.1,1.5 -11.7,35 -11.7,35 z"
   id="path154" />
	<polygon
   class="st7"
   points="230.1,543.5 185.3,569 182.4,561.9 170.4,532.5 216.7,511.5 "
   id="polygon156" />
	<path
   class="st0"
   d="m 228.9,619.7 c 0.5,-3.3 1.1,-6.4 1.9,-8.6 2.8,-8.4 9.9,-15.5 14.7,-21.7 4.7,-6.1 18.8,-24.3 19.3,-24.9 0,0 0,0 0,0 0,0 1.2,0 2.9,0.3 -8.5,7.9 -18.1,29.1 -17.6,39.5 0.2,3.4 1.6,9.2 3.5,15.4 -6,-1.5 -24.7,0 -24.7,0 z"
   id="path158" />
	<polygon
   class="st0"
   points="235.8,474.7 229.5,476.5 204.9,483.4 187.8,488.3 178.7,420.7 222.8,410.8 222.9,412.1 "
   id="polygon160" />
	<polygon
   class="st0"
   points="169.5,346.4 172.2,343.6 190.5,346.1 200.6,347.4 221.6,390.5 222.8,410.8 178.7,420.7 169.5,422.7 "
   id="polygon162" />
	<path
   class="st1"
   d="m 214.1,601.4 c 0,0 13.7,6.3 16.7,9.7 -0.8,2.3 -1.4,5.3 -1.9,8.6 -1.3,8.6 -1.7,18.6 -1.7,19 -3.2,-3.8 -7.1,-7.9 -10.3,-11.2 -3.6,-3.7 -6.4,-6.3 -6.4,-6.3 0,0 -1.7,-9.2 3.6,-19.8 z"
   id="path164" />
	<polygon
   class="st7"
   points="216.7,511.5 170.4,532.5 158.2,502.7 158.2,502.6 156,497.3 187.8,488.3 204.9,483.4 "
   id="polygon166" />
	<path
   class="st0"
   d="m 182.4,561.9 v 0 l 3,7.1 21.4,52.2 h 3.8 c 0,0 2.8,2.6 6.4,6.3 l -0.8,1"
   id="path168" />
	<path
   class="st7"
   d="m 244,576.6 v 0 c -3.2,1.8 -6.8,3.8 -11,6.1 -10.1,5.5 -15.8,12.4 -19,18.7 -5.3,10.5 -3.6,19.8 -3.6,19.8 h -3.8 L 185.3,569 230.1,543.4 Z"
   id="path170" />
	<polygon
   class="st1"
   points="169.5,346.4 169.5,422.7 145.3,428.1 145.2,426.8 145.2,395.9 145.2,371.8 "
   id="polygon172" />
	<polygon
   class="st1"
   points="156,497.3 154.2,497.8 145.3,428.1 169.5,422.7 178.7,420.7 187.8,488.3 "
   id="polygon174" />
	<path
   class="st10"
   d="m 336.8,206.3 9.6,-1 c 0,0 3.9,23.7 3.5,26.2 -0.3,2.5 -2.5,5.2 -5.6,6.1 -3,0.8 -13,0 -13,0 0,0 5,-29.6 5.5,-31.3 z"
   id="path176" />
	<polygon
   class="st10"
   points="245.7,214.8 339.5,249.3 339.5,265.5 "
   id="polygon178" />
	<path
   class="st10"
   d="m 331.4,261.2 18.6,12.5 c 0,0 1.7,-0.3 6.2,-1.8 4.6,-1.5 18.5,5.1 25.6,8.1 7.1,3 4.8,-20 4.8,-20 l -31.6,-19.8 -15.5,9.1"
   id="path180" />
	<polygon
   class="st10"
   points="222.9,412.1 235.8,474.7 154.2,497.8 145.2,426.8 145.2,371.8 172.2,343.6 200.6,347.4 221.6,390.5 "
   id="polygon182" />
	<line
   class="st10"
   x1="145.3"
   y1="428.10001"
   x2="222.8"
   y2="410.89999"
   id="line184" />
	<path
   class="st10"
   d="m 156,497.3 50.7,124 h 3.8 c 0,0 -4.3,-23.8 22.6,-38.5 26.9,-14.7 31.7,-18.3 31.7,-18.3 l -35.2,-88"
   id="path186" />
	<line
   class="st10"
   x1="170.39999"
   y1="532.5"
   x2="239.39999"
   y2="501.20001"
   id="line188" />
	<line
   class="st10"
   x1="185.3"
   y1="569"
   x2="251.5"
   y2="531.29999"
   id="line190" />
	<path
   class="st10"
   d="m 210.5,621.2 c 0,0 18.3,17.2 22.3,25.4 l 31.9,1 21,-4.1 29.8,-16.1"
   id="path192" />
	<polyline
   class="st10"
   points="332.9,561.9 345.8,589.5 350.2,614.8  "
   id="polyline194" />
	<line
   class="st10"
   x1="312.89999"
   y1="568"
   x2="332.89999"
   y2="619.70001"
   id="line196" />
	<path
   class="st10"
   d="m 278.2,573.8 -11.7,25.4 c 0,0 5,24.8 18,44.6"
   id="path198" />
	<path
   class="st10"
   d="m 227.2,638.7 c 0,0 0.8,-19.3 3.6,-27.6 2.8,-8.4 9.9,-15.5 14.7,-21.7 4.8,-6.2 19.3,-24.9 19.3,-24.9 0,0 10.6,-0.3 13.4,9.4 l 34.7,-5.8 c 0,0 14.5,-6.1 20,-6.1 l 9.8,-9.1 11,8.1 10.1,20.5 v 26.1"
   id="path200" />
	<path
   class="st10"
   d="m 263,647.5 c 0,0 -12.5,-32.9 -13,-43.3 -0.5,-10.4 9.1,-31.6 17.6,-39.5"
   id="path202" />
	<path
   class="st10"
   d="m 377.8,604.3 c 0,0 -0.3,-15.9 1.3,-18.1 1.5,-2.2 10.5,-3.4 11.7,-0.8 1.2,2.6 1.9,3 1.9,3 0,0 3.4,-6.4 6.4,-5.9 3,0.5 9.3,5.2 9.3,5.2 0,0 4.9,-4.5 5.4,-5.3 0.5,-0.8 -3.2,-17.3 -3.2,-17.3 0,0 -4.1,-9.1 -3.8,-12.4 0,0 -8.1,-12.9 -8.1,-16.2 l -26.4,1.5 c 0,0 -10.9,16.2 -18.5,22.8"
   id="path204" />
	<path
   class="st10"
   d="m 372.2,538.1 4.6,-13.4 c 0,0 20.4,-12.8 32.9,-22"
   id="path206" />
	<path
   class="st10"
   d="m 398.6,536.6 c 0,0 4.9,-8.6 13.6,-11.7"
   id="path208" />
	<line
   class="st10"
   x1="390.10001"
   y1="516.09998"
   x2="404.5"
   y2="529.59998"
   id="line210" />
	<polyline
   class="st10"
   points="419.4,531 416.6,548.5 407.2,556  "
   id="polyline212" />
	<path
   class="st10"
   d="m 435.9,541.4 c 0,0 -2.7,9 -6.1,12.6 -3.4,3.5 -19,12.3 -19,12.3"
   id="path214" />
	<path
   class="st10"
   d="m 393.8,609.6 c 0,0 -2.8,-17.2 -2.2,-22.6"
   id="path216" />
	<path
   class="st10"
   d="m 408.3,587.8 c 0,0 -1.2,22.1 0,25"
   id="path218" />
	<path
   class="st10"
   d="m 413.7,582.5 c 0,0 21.6,-11 30.8,-24.1"
   id="path220" />
	<path
   class="st10"
   d="m 416.3,581.1 c 0,0 12.3,17.8 1.8,32"
   id="path222" />
	<path
   class="st10"
   d="m 428,573.7 c 0,0 9.9,11.4 8,27.7"
   id="path224" />
	<line
   class="st10"
   x1="447.39999"
   y1="581.09998"
   x2="435.29999"
   y2="588.59998"
   id="line226" />
	<path
   class="st10"
   d="m 200.6,347.4 19.3,-8.1 14.2,-32.2 -9.6,-10.4 v -20.3 l 12.7,-23.3 27.1,-10.6 20.5,-31.7 29.7,-16.5 30.2,1.5 8.9,4.1 10.9,47.9 63.6,-48.4 -41.4,60.6 0.5,11.4 c 0,0 23.6,27.4 37,61.9 0,0 3.8,-3.3 6.8,0 3,3.3 9.9,11.9 9.9,11.9 l -10.1,48.6 12.5,21.3 c 0,0 1,27.4 3,38.2 l -13.5,4.7 -29.7,-11.2 -9.1,26.7 14.2,30.1 7.8,-4.7 8.1,16.9 -11.8,9.1 7.2,6.1 h 8.9 l 7.6,10.4 c 0,0 6.8,-0.3 7.9,5.3 1,5.6 0.8,11.7 0.8,11.7 0,0 5.1,1.3 5.6,8.9 0.5,7.6 -3,14.7 -3,14.7 0,0 5.6,10.6 0.3,15.5 -5.3,4.9 -11.2,3 -11.2,3 0,0 0.3,18.5 -18,12.7 0,0 -9.6,3.5 -12.2,-3.5 0,0 -25.9,0.8 -27.1,-1.8 -1.3,-2.5 -1,-4.6 -1,-4.6 l -15.2,4.6 -11.4,6.5 -16.7,8.5 -2.5,-5.1 L 312,630"
   id="path228" />
	<path
   class="st10"
   d="m 264.2,242.5 c 0,0 -17.5,28.1 -18.5,29.7 -1,1.5 -11.7,35 -11.7,35 l 6.1,4.1 27.7,-36.5 c 0,0 21.8,-16.9 32.1,-21"
   id="path230" />
	<polyline
   class="st11"
   points="371.2,324.4 394.3,325.9 406,319.8  "
   id="polyline232" />
	<polyline
   class="st11"
   points="375.5,335 399.6,336.8 413.3,328.4  "
   id="polyline234" />
	<line
   class="st10"
   x1="219.89999"
   y1="339.29999"
   x2="249.10001"
   y2="379.89999"
   id="line236" />
	<line
   class="st10"
   x1="202.7"
   y1="346.5"
   x2="237.39999"
   y2="398.10001"
   id="line238" />
	<path
   class="st10"
   d="m 240.1,311.3 c 0,0 12.3,55.1 9,67.6"
   id="path240" />
	<path
   class="st10"
   d="m 270.3,565.5 -22.1,-62.8 -1.7,-30.5 C 243.8,474.6 232,414.7 232,414.7 l 22.6,-47.3 h 15.7 l 5,11.5 -28.7,93.3"
   id="path242" />
	<polyline
   class="st10"
   points="273.9,270.2 267,280.3 266,308.4 312.1,325.9 303.3,336.8 314.2,375.3 377.6,394.1 389.7,363.9    397.8,362.6 420.7,377.6 433,397.5  "
   id="polyline244" />
	<polyline
   class="st10"
   points="266,308.4 261.2,336.8 271.8,363.6 294.4,341.3 300,359.6 280.6,384.4  "
   id="polyline246" />
	<polyline
   class="st10"
   points="271.8,363.6 288.3,408.3 304.3,456.2 346.4,491.4 386.7,489.6 394,473.5  "
   id="polyline248" />
	<polyline
   class="st10"
   points="312.1,325.9 392.8,350 424.2,333.2  "
   id="polyline250" />
	<path
   class="st10"
   d="m 383.3,379.9 -56.1,-7.4 c 0,0 -3,0.2 -4.7,-6.8 -1.7,-6.9 -6.1,-20.6 -6.9,-24 -0.8,-3.4 1,-5.9 8.5,-2.4 7.4,3.5 60.4,21.8 64.6,21.8 4.2,0 15.5,-2.7 27.2,-8.3 11.7,-5.6 16.4,-9.3 16.1,-1.5 -0.3,7.8 -1,26.2 -6.9,33.1"
   id="path252" />
	<line
   class="st10"
   x1="312.5"
   y1="369.29999"
   x2="289.20001"
   y2="410.89999"
   id="line254" />
	<polyline
   class="st10"
   points="291.9,406.1 341.1,432.4 371.6,414.9  "
   id="polyline256" />
	<polyline
   class="st10"
   points="377.6,394.1 370.6,415.4 373.6,434.5 403.1,446.8  "
   id="polyline258" />
	<line
   class="st10"
   x1="371.60001"
   y1="410.89999"
   x2="395.60001"
   y2="410.89999"
   id="line260" />
	<line
   class="st10"
   x1="361.20001"
   y1="272.10001"
   x2="339.5"
   y2="260.20001"
   id="line262" />
	<path
   class="st10"
   d="m 250.5,501.1 26.1,-111 6.2,14.5 -19.7,125.4 -11.5,-20.3 c -1.5,-2.6 -1.9,-5.7 -1.1,-8.6 z"
   id="path264" />
	<polyline
   class="st10"
   points="258.8,532.5 270.3,562.6 289.2,443.4 303,469.2 288.2,572.1  "
   id="polyline266" />
	<polyline
   class="st10"
   points="303,569.6 312.9,479.6 330.4,494.8 321.2,564.8  "
   id="polyline268" />
	<polyline
   class="st10"
   points="335.5,559.5 337.5,501.2 358.5,501.2 356.4,558.4  "
   id="polyline270" />
	<polyline
   class="st10"
   points="368.4,543.5 368.4,499.2 388.5,497.8 388.5,517.1  "
   id="polyline272" />
	<polygon
   points="340.9,458.8 353.4,471.1 386,469 384.6,474.7 352.4,477.4 340.3,464.3 "
   id="polygon274" />
	<polygon
   points="344.1,447.9 356.6,460.2 389.3,460.7 387.9,466.5 355.6,466.5 343.6,453.4 "
   id="polygon276" />
</g>
</svg>
